<svg version="1.1" width="157" height="121" viewBox="0 0 157 121" xmlns="http://www.w3.org/2000/svg" xmlns:xlink="http://www.w3.org/1999/xlink" overflow="hidden"><defs></defs><g id="Page-1" stroke="none" stroke-width="1" fill="none" fill-rule="evenodd"><g id="star-wars-copy" transform="matrix(1,0,0,1,-283,-907)"><g id="r2d2" transform="matrix(1,0,0,1,283,907)"><path d=" M 74.7078 0.5888 C 32.7558 2.5628 0.4758 38.7008 0.4758 80.7008 L 0.4758 108.499 C 0.4758 115.129 5.8518 120.499 12.4758 120.499 L 144.476 120.499 C 151.106 120.499 156.476 115.129 156.476 108.499 L 156.476 78.4988 C 156.476 34.1708 119.498 -1.5232 74.7078 0.5888" id="Fill-259" fill="#BEBEBE"/><path d=" M 81.4782 0.656 L 81.4782 24.5 L 134.68 24.5 C 121.138 10.406 102.364 1.454 81.4782 0.656" id="Fill-260" fill="#2980B9"/><path d=" M 75.4782 0.656 C 54.5922 1.454 35.8182 10.406 22.2762 24.5 L 75.4782 24.5 L 75.4782 0.656 Z" id="Fill-261" fill="#2980B9"/><path d=" M 107.56 72.5 L 73.3962 72.5 C 69.7422 72.5 66.9402 69.266 67.4562 65.654 L 71.7402 35.654 C 72.1662 32.696 74.6982 30.5 77.6802 30.5 L 103.276 30.5 C 106.258 30.5 108.79 32.696 109.216 35.654 L 113.5 65.654 C 114.016 69.266 111.214 72.5 107.56 72.5" id="Fill-262" fill="#2980B9"/><path d=" M 105.478 51.5 C 105.478 59.786 98.7642 66.5 90.4782 66.5 C 82.1922 66.5 75.4782 59.786 75.4782 51.5 C 75.4782 43.214 82.1922 36.5 90.4782 36.5 C 98.7642 36.5 105.478 43.214 105.478 51.5" id="Fill-263" fill="#323232"/><path d=" M 93.4782 48.5 C 93.4782 51.812 90.7902 54.5 87.4782 54.5 C 84.1662 54.5 81.4782 51.812 81.4782 48.5 C 81.4782 45.188 84.1662 42.5 87.4782 42.5 C 90.7902 42.5 93.4782 45.188 93.4782 48.5" id="Fill-264" fill="#FFFFFF"/><path d=" M 42.48 84.5 L 60.48 84.5 L 60.48 72.5 L 42.48 72.5 L 42.48 84.5 Z" id="Fill-265" fill="#505050"/><path d=" M 42.48 96.5 L 60.48 96.5 L 60.48 84.5 L 42.48 84.5 L 42.48 96.5 Z" id="Fill-266" fill="#505050"/><path d=" M 114.48 96.5 L 84.48 96.5 L 84.48 78.5 L 114.48 78.5 L 114.48 96.5 Z" id="Fill-267" fill="#2980B9"/><path d=" M 78.48 96.5 L 66.48 96.5 L 66.48 78.5 L 78.48 78.5 L 78.48 96.5 Z" id="Fill-268" fill="#2980B9"/><path d=" M 0.4782 108.5 C 0.4782 110.048 0.7962 111.518 1.3302 112.874 L 155.626 112.874 C 156.16 111.518 156.478 110.048 156.478 108.5 L 156.478 103.124 L 0.4782 103.124 L 0.4782 108.5 Z" id="Fill-269" fill="#2980B9"/><path d=" M 36.4782 72.5 L 0.9102 72.5 C 0.6342 75.206 0.4782 77.936 0.4782 80.702 L 0.4782 96.5 L 36.4782 96.5 L 36.4782 72.5 Z" id="Fill-270" fill="#2980B9"/><path d=" M 150.478 72.5 L 150.478 96.5 L 156.478 96.5 L 156.478 78.5 C 156.478 76.472 156.316 74.486 156.166 72.5 L 150.478 72.5 Z" id="Fill-271" fill="#2980B9"/><path d=" M 144.478 84.5 C 144.478 91.13 139.108 96.5 132.478 96.5 C 125.848 96.5 120.478 91.13 120.478 84.5 C 120.478 77.87 125.848 72.5 132.478 72.5 C 139.108 72.5 144.478 77.87 144.478 84.5" id="Fill-272" fill="#8C8C8C"/><path d=" M 139.978 84.5 C 139.978 88.64 136.618 92 132.478 92 C 128.338 92 124.978 88.64 124.978 84.5 C 124.978 80.36 128.338 77 132.478 77 C 136.618 77 139.978 80.36 139.978 84.5" id="Fill-273" fill="#FFFFFF"/><path d=" M 108.478 87.5 C 108.478 90.812 105.79 93.5 102.478 93.5 C 99.1662 93.5 96.4782 90.812 96.4782 87.5 C 96.4782 84.188 99.1662 81.5 102.478 81.5 C 105.79 81.5 108.478 84.188 108.478 87.5" id="Fill-274" fill="#C0392B"/><path d=" M 15.42 63.5 C 15.138 63.5 14.85 63.458 14.562 63.374 C 12.978 62.9 12.072 61.232 12.546 59.642 C 15.282 50.468 19.764 42.044 25.866 34.598 C 26.922 33.314 28.818 33.134 30.09 34.178 C 31.368 35.234 31.554 37.124 30.51 38.402 C 24.906 45.23 20.796 52.952 18.294 61.358 C 17.904 62.66 16.716 63.5 15.42 63.5" id="Fill-275" fill="#E6E6E6" opacity="0.571012"/></g></g></g></svg>